<mxfile host="app.diagrams.net" modified="2022-08-09T07:47:24.412Z" agent="5.0 (Windows NT 10.0; Win64; x64) AppleWebKit/537.36 (KHTML, like Gecko) Chrome/103.0.0.0 Safari/537.36" etag="qpfuvy32lXFOodtgIczw" version="20.2.2" type="github">
  <diagram id="sX-O_yRoPQkGcjwayzJc" name="第 1 页">
    <mxGraphModel dx="1422" dy="804" grid="1" gridSize="10" guides="1" tooltips="1" connect="1" arrows="1" fold="1" page="1" pageScale="1" pageWidth="827" pageHeight="1169" math="0" shadow="0">
      <root>
        <mxCell id="0" />
        <mxCell id="1" parent="0" />
        <mxCell id="LSNSsFA9dbS6Z7NRmI0D-1" value="实时监控" style="rounded=1;whiteSpace=wrap;html=1;" vertex="1" parent="1">
          <mxGeometry x="90" y="370" width="120" height="60" as="geometry" />
        </mxCell>
        <mxCell id="LSNSsFA9dbS6Z7NRmI0D-2" value="开盘监控" style="rounded=1;whiteSpace=wrap;html=1;" vertex="1" parent="1">
          <mxGeometry x="580" y="290" width="120" height="60" as="geometry" />
        </mxCell>
        <mxCell id="LSNSsFA9dbS6Z7NRmI0D-3" value="竞价监控" style="rounded=1;whiteSpace=wrap;html=1;" vertex="1" parent="1">
          <mxGeometry x="90" y="220" width="120" height="60" as="geometry" />
        </mxCell>
        <mxCell id="LSNSsFA9dbS6Z7NRmI0D-15" style="edgeStyle=orthogonalEdgeStyle;rounded=0;orthogonalLoop=1;jettySize=auto;html=1;entryX=0.5;entryY=0;entryDx=0;entryDy=0;fontSize=12;fontColor=#000000;" edge="1" parent="1" source="LSNSsFA9dbS6Z7NRmI0D-4" target="LSNSsFA9dbS6Z7NRmI0D-7">
          <mxGeometry relative="1" as="geometry" />
        </mxCell>
        <mxCell id="LSNSsFA9dbS6Z7NRmI0D-4" value="K线选股" style="rounded=1;whiteSpace=wrap;html=1;" vertex="1" parent="1">
          <mxGeometry x="365" y="100" width="120" height="60" as="geometry" />
        </mxCell>
        <mxCell id="LSNSsFA9dbS6Z7NRmI0D-6" value="每天9:00之前完成" style="text;html=1;align=center;verticalAlign=middle;resizable=0;points=[];autosize=1;fontStyle=2;fontSize=12;fontColor=#9E9E9E;" vertex="1" parent="1">
          <mxGeometry x="365" y="130" width="120" height="30" as="geometry" />
        </mxCell>
        <mxCell id="LSNSsFA9dbS6Z7NRmI0D-12" style="edgeStyle=orthogonalEdgeStyle;rounded=0;orthogonalLoop=1;jettySize=auto;html=1;entryX=0;entryY=0.5;entryDx=0;entryDy=0;fontSize=12;fontColor=#000000;" edge="1" parent="1" source="LSNSsFA9dbS6Z7NRmI0D-7" target="LSNSsFA9dbS6Z7NRmI0D-2">
          <mxGeometry relative="1" as="geometry" />
        </mxCell>
        <mxCell id="LSNSsFA9dbS6Z7NRmI0D-17" style="edgeStyle=orthogonalEdgeStyle;rounded=0;orthogonalLoop=1;jettySize=auto;html=1;entryX=1;entryY=0.5;entryDx=0;entryDy=0;fontSize=12;fontColor=#000000;" edge="1" parent="1" source="LSNSsFA9dbS6Z7NRmI0D-7" target="LSNSsFA9dbS6Z7NRmI0D-3">
          <mxGeometry relative="1" as="geometry" />
        </mxCell>
        <mxCell id="LSNSsFA9dbS6Z7NRmI0D-21" style="edgeStyle=orthogonalEdgeStyle;rounded=0;orthogonalLoop=1;jettySize=auto;html=1;entryX=1;entryY=0.5;entryDx=0;entryDy=0;fontSize=12;fontColor=#000000;" edge="1" parent="1" source="LSNSsFA9dbS6Z7NRmI0D-7" target="LSNSsFA9dbS6Z7NRmI0D-1">
          <mxGeometry relative="1" as="geometry" />
        </mxCell>
        <mxCell id="LSNSsFA9dbS6Z7NRmI0D-24" style="edgeStyle=orthogonalEdgeStyle;rounded=0;orthogonalLoop=1;jettySize=auto;html=1;entryX=0.5;entryY=0;entryDx=0;entryDy=0;fontSize=12;fontColor=#878787;" edge="1" parent="1" source="LSNSsFA9dbS6Z7NRmI0D-7" target="LSNSsFA9dbS6Z7NRmI0D-23">
          <mxGeometry relative="1" as="geometry" />
        </mxCell>
        <mxCell id="LSNSsFA9dbS6Z7NRmI0D-7" value="&lt;font color=&quot;#000000&quot;&gt;时间&lt;/font&gt;" style="rhombus;whiteSpace=wrap;html=1;fontSize=12;fontColor=#9E9E9E;" vertex="1" parent="1">
          <mxGeometry x="365" y="280" width="120" height="80" as="geometry" />
        </mxCell>
        <mxCell id="LSNSsFA9dbS6Z7NRmI0D-9" value="9:20-9:30" style="text;html=1;align=center;verticalAlign=middle;resizable=0;points=[];autosize=1;strokeColor=none;fillColor=none;fontSize=12;fontColor=#000000;" vertex="1" parent="1">
          <mxGeometry x="220" y="220" width="70" height="30" as="geometry" />
        </mxCell>
        <mxCell id="LSNSsFA9dbS6Z7NRmI0D-11" value="9:30-9:35" style="text;html=1;align=center;verticalAlign=middle;resizable=0;points=[];autosize=1;strokeColor=none;fillColor=none;fontSize=12;fontColor=#000000;" vertex="1" parent="1">
          <mxGeometry x="220" y="400" width="70" height="30" as="geometry" />
        </mxCell>
        <mxCell id="LSNSsFA9dbS6Z7NRmI0D-13" value="9:31" style="text;html=1;align=center;verticalAlign=middle;resizable=0;points=[];autosize=1;strokeColor=none;fillColor=none;fontSize=12;fontColor=#000000;" vertex="1" parent="1">
          <mxGeometry x="500" y="290" width="50" height="30" as="geometry" />
        </mxCell>
        <mxCell id="LSNSsFA9dbS6Z7NRmI0D-19" value="" style="rounded=0;whiteSpace=wrap;html=1;fontSize=12;fillStyle=auto;fillColor=#dae8fc;strokeColor=#6c8ebf;opacity=30;" vertex="1" parent="1">
          <mxGeometry x="50" y="180" width="280" height="310" as="geometry" />
        </mxCell>
        <mxCell id="LSNSsFA9dbS6Z7NRmI0D-22" value="每分钟一次" style="text;html=1;align=center;verticalAlign=middle;resizable=0;points=[];autosize=1;strokeColor=none;fillColor=none;fontSize=12;fontColor=#878787;fontStyle=2" vertex="1" parent="1">
          <mxGeometry x="140" y="460" width="80" height="30" as="geometry" />
        </mxCell>
        <mxCell id="LSNSsFA9dbS6Z7NRmI0D-23" value="选股结果" style="rounded=1;whiteSpace=wrap;html=1;" vertex="1" parent="1">
          <mxGeometry x="365" y="510" width="120" height="60" as="geometry" />
        </mxCell>
        <mxCell id="LSNSsFA9dbS6Z7NRmI0D-25" value="&lt;font color=&quot;#000000&quot;&gt;9:35&lt;/font&gt;" style="text;html=1;align=center;verticalAlign=middle;resizable=0;points=[];autosize=1;strokeColor=none;fillColor=none;fontSize=12;fontColor=#878787;" vertex="1" parent="1">
          <mxGeometry x="415" y="415" width="50" height="30" as="geometry" />
        </mxCell>
      </root>
    </mxGraphModel>
  </diagram>
</mxfile>
